<?xml version="1.0" standalone="no"?>
<!DOCTYPE svg PUBLIC "-//W3C//DTD SVG 20010904//EN"
 "http://www.w3.org/TR/2001/REC-SVG-20010904/DTD/svg10.dtd">
<svg version="1.0" xmlns="http://www.w3.org/2000/svg"
 width="225.000000pt" height="225.000000pt" viewBox="0 0 225.000000 225.000000"
 preserveAspectRatio="xMidYMid meet">

<g transform="translate(0.000000,225.000000) scale(0.100000,-0.100000)"
fill="#000000" stroke="none">
<path d="M819 1842 c-130 -34 -239 -124 -299 -246 -25 -50 -43 -124 -90 -371
-64 -329 -69 -378 -45 -470 44 -168 172 -296 340 -341 61 -17 655 -19 724 -3
146 33 290 162 336 300 8 24 39 172 70 329 55 288 64 374 44 459 -39 169 -195
318 -368 351 -30 5 -187 10 -350 9 -246 0 -307 -3 -362 -17z m434 -407 c31 -8
75 -26 97 -40 l41 -26 -42 -49 c-23 -28 -44 -50 -45 -50 -2 0 -18 9 -36 20
-39 24 -126 27 -166 6 -172 -90 -113 -352 79 -350 29 0 60 9 84 23 l38 22 45
-45 c54 -53 51 -60 -37 -103 -114 -56 -263 -30 -356 62 -60 61 -90 135 -90
225 0 88 22 145 80 209 47 52 88 77 156 95 70 19 83 19 152 1z"/>
</g>
</svg>
