<?xml version="1.0" standalone="no"?>
<!DOCTYPE svg PUBLIC "-//W3C//DTD SVG 20010904//EN"
 "http://www.w3.org/TR/2001/REC-SVG-20010904/DTD/svg10.dtd">
<svg version="1.0" xmlns="http://www.w3.org/2000/svg"
 width="624.000000pt" height="545.000000pt" viewBox="0 0 624.000000 545.000000"
 preserveAspectRatio="xMidYMid meet">

<g transform="translate(0.000000,545.000000) scale(0.100000,-0.100000)"
fill="#000000" stroke="none">
<path d="M2750 5109 c-505 -278 -541 -298 -935 -514 -346 -189 -405 -222 -705
-387 -74 -41 -323 -178 -554 -304 l-418 -229 1497 -3 c823 -1 2168 -1 2988 0
l1492 3 -85 46 c-47 26 -299 162 -560 304 -261 141 -527 285 -590 320 -63 35
-383 208 -710 385 -327 178 -697 379 -823 447 -125 67 -233 123 -240 122 -6 0
-167 -86 -357 -190z"/>
<path d="M280 3260 c0 -199 0 -200 23 -204 12 -3 63 -12 112 -21 106 -20 158
-41 207 -84 72 -63 69 -2 66 -1202 l-3 -1074 -22 -41 c-46 -86 -130 -136 -248
-148 -38 -4 -87 -9 -107 -13 l-38 -6 0 -178 0 -179 895 0 895 0 0 178 0 179
-95 11 c-159 20 -241 62 -292 150 l-28 47 -3 1045 c-2 575 0 1069 3 1097 9 71
55 137 122 175 48 27 130 48 246 63 l47 6 0 200 0 199 -890 0 -890 0 0 -200z"/>
<path d="M2240 3260 l0 -199 38 -7 c111 -19 215 -45 250 -63 49 -25 96 -78
113 -128 20 -54 21 -2126 1 -2189 -17 -57 -82 -128 -145 -157 -30 -14 -82 -27
-122 -31 -38 -4 -87 -9 -107 -13 l-38 -6 0 -178 0 -179 895 0 895 0 0 179 0
179 -67 7 c-80 8 -176 31 -216 51 -15 8 -46 33 -67 56 -73 75 -70 19 -70 1178
0 1112 0 1104 51 1168 53 66 134 101 282 121 43 6 80 11 83 11 2 0 4 90 4 200
l0 200 -890 0 -890 0 0 -200z"/>
<path d="M4200 3260 c0 -110 1 -200 3 -200 33 0 230 -45 267 -61 58 -25 112
-80 131 -135 21 -58 21 -2140 0 -2198 -19 -55 -87 -125 -146 -151 -27 -12 -81
-25 -120 -29 -38 -4 -87 -9 -107 -13 l-38 -6 0 -178 0 -179 895 0 895 0 0 179
0 178 -91 12 c-174 22 -245 61 -301 166 l-22 40 0 1070 c-1 1166 -4 1113 56
1181 57 65 141 97 311 119 l47 6 0 200 0 199 -890 0 -890 0 0 -200z"/>
</g>
</svg>
