<?xml version="1.0" standalone="no"?>
<!DOCTYPE svg PUBLIC "-//W3C//DTD SVG 20010904//EN"
 "http://www.w3.org/TR/2001/REC-SVG-20010904/DTD/svg10.dtd">
<svg version="1.0" xmlns="http://www.w3.org/2000/svg"
 width="225.000000pt" height="225.000000pt" viewBox="0 0 225.000000 225.000000"
 preserveAspectRatio="xMidYMid meet">

<g transform="translate(0.000000,225.000000) scale(0.100000,-0.100000)"
fill="#000000" stroke="none">
<path d="M0 1125 l0 -1125 1125 0 1125 0 0 1125 0 1125 -1125 0 -1125 0 0
-1125z m965 201 c124 -372 161 -475 169 -463 6 10 81 225 166 479 l155 463
123 3 c67 1 122 -1 122 -5 0 -4 51 -311 114 -681 l113 -673 -121 3 -120 3 -72
423 c-39 232 -74 425 -77 429 -4 3 -9 0 -12 -8 -2 -8 -62 -183 -131 -389 -70
-206 -136 -387 -146 -403 -30 -42 -73 -60 -135 -55 -44 4 -60 11 -88 38 -30
29 -47 73 -166 427 -72 217 -135 391 -139 386 -4 -4 -26 -114 -48 -243 -22
-129 -55 -319 -73 -423 l-33 -187 -121 0 -121 0 32 183 c18 100 69 394 114
652 44 259 83 483 86 498 l6 28 121 -3 122 -3 160 -479z"/>
</g>
</svg>
